<svg xmlns="http://www.w3.org/2000/svg" width="24" height="24" fill="none"><path fill="#181818" fill-rule="evenodd" d="M2.3 12.245c0-4.9 3.972-8.872 8.872-8.872 1.312 0 2.556.284 3.675.795a.6.6 0 0 0 .498-1.092 10.037 10.037 0 0 0-4.173-.903C5.609 2.173 1.1 6.683 1.1 12.245c0 5.562 4.509 10.072 10.072 10.072 5.562 0 10.072-4.51 10.072-10.072 0-.448-.03-.89-.087-1.323a.6.6 0 1 0-1.19.156A8.872 8.872 0 1 1 2.3 12.245Zm12.394-2.48a.977.977 0 1 0-1.954 0 .977.977 0 0 0 1.954 0ZM8.627 8.79a.977.977 0 1 1 0 1.953.977.977 0 0 1 0-1.953Zm-.229 4.533a.6.6 0 1 0-1.184.196c.171 1.034.626 1.83 1.323 2.376.685.538 1.55.792 2.477.856l.021.002h.021c.995 0 1.885-.25 2.573-.814.692-.567 1.113-1.398 1.27-2.428a.6.6 0 0 0-1.186-.181c-.123.806-.43 1.342-.845 1.681-.414.34-1.002.538-1.791.542-.76-.056-1.363-.26-1.8-.602-.429-.337-.75-.848-.879-1.628ZM18.596 3.1a.6.6 0 1 1 1.2 0v2.2h2.2a.6.6 0 1 1 0 1.2h-2.2v2.4a.6.6 0 1 1-1.2 0V6.5h-2.4a.6.6 0 1 1 0-1.2h2.4V3.1Z" clip-rule="evenodd"/></svg>